@startuml
set separator none
package oy.tol.tra {
  interface StackInterface<E> {
    +int capacity()
    +void push(E element)
    +E pop()
    +E peek()
    +int size()
    +boolean isEmpty()
    +void clear()
  }
  class StackFactory {
    +{static}StackInterface<Integer> createIntegerStack(int capacity)
    +<color:Red>{static}StackInterface<Character> createCharacterStack(int capacity)</color>
  }
  note top of StackFactory
    You must implement method createCharacterStack() in 06-parenthesis-checker.
  end note
  class StackImplementation implements StackInterface {
    -Object[] itemArray
    -int capacity
    -int currentIndex
  }
  class ParenthesisChecker {
    +<color:Red>{static} int checkParentheses(StackInterface<Character> stack, String fromString)</color>
  }
  note top of ParenthesisChecker
    Implement this in task 06-parenthesis-checker.
  end note
  'class StackImplementation #pink;line:red
  class StackImplementation
  note right of StackImplementation 
    This was implemented in 02-stack.
  end note 
  StackFactory ..> StackImplementation : instantiates
  ParenthesisChecker ..> StackImplementation : uses
  
  ParenthesisChecker ..> ParenthesesException : throws
  StackImplementation ..> StackIsEmptyException : throws
  StackImplementation ..> StackAllocationException : throws
  StackTests ..> StackImplementation : tests
  ParenthesisTests ..> ParenthesisChecker : tests
}
package java.lang {
  class Exception
  StackIsEmptyException --|> Exception
  StackAllocationException --|> Exception
  ParenthesesException --|> Exception
}

@enduml
